<svg xmlns="http://www.w3.org/2000/svg" width="600" height="600" viewBox="0 0 600 600" version="1.1">
	<path d="M 284.942 69.948 C 278.701 71.842, 273.785 75.626, 271.262 80.477 C 268.991 84.844, 269.418 91.815, 272.899 107.243 C 274.605 114.801, 276 121.664, 276 122.493 C 276 123.599, 274.869 124.001, 271.750 124.003 C 264.122 124.008, 249.669 126.163, 241.500 128.513 C 237.100 129.779, 229.521 131.554, 224.658 132.457 C 195.869 137.803, 165.606 150.429, 142.842 166.592 C 130.744 175.182, 111.775 194.442, 102.552 207.500 C 68.248 256.069, 59.705 320.947, 79.573 382 C 87.170 405.344, 100.693 430.406, 115.725 449 C 123.007 458.007, 139.030 473.961, 148 481.137 C 187.753 512.937, 240.468 529.995, 299.006 529.999 C 369.370 530.004, 429.093 506.323, 472.004 461.402 C 524.234 406.728, 543.383 324.595, 520.361 254 C 498.893 188.170, 443.558 142.512, 371.500 131.173 C 356.567 128.823, 335.355 126.076, 329.500 125.734 L 325.500 125.500 324.743 117 C 323.582 103.964, 320.172 86.258, 318.005 82.010 C 315.434 76.971, 310.030 72.636, 303.814 70.629 C 298.573 68.936, 289.370 68.605, 284.942 69.948" stroke="none" fill="black" fill-rule="evenodd"/>
</svg>